<?xml version="1.0" standalone="no"?>
<!DOCTYPE svg PUBLIC "-//W3C//DTD SVG 20010904//EN"
 "http://www.w3.org/TR/2001/REC-SVG-20010904/DTD/svg10.dtd">
<svg version="1.0" xmlns="http://www.w3.org/2000/svg"
 width="700.000000pt" height="700.000000pt" viewBox="0 0 700.000000 700.000000"
 preserveAspectRatio="xMidYMid meet">
<metadata>
Created by potrace 1.14, written by Peter Selinger 2001-2017
</metadata>
<g transform="translate(0.000000,700.000000) scale(0.100000,-0.100000)"
fill="#000000" stroke="none">
<path d="M3004 6073 c1 -511 -3 -968 -7 -1018 -31 -342 -214 -651 -498 -841
-130 -86 -278 -151 -393 -169 -17 -3 -42 -7 -56 -10 -74 -14 -194 -16 -1072
-16 l-958 -1 0 -507 0 -507 1018 1 c559 1 1033 4 1052 8 19 4 51 9 70 11 91
13 123 19 230 46 177 45 250 72 417 152 476 227 873 656 1062 1146 31 82 95
294 105 352 3 19 8 44 10 56 2 12 8 45 11 75 4 30 10 65 13 79 2 14 6 485 8
1048 l3 1022 -508 0 -508 0 1 -927z"/>
<path d="M5037 3994 c-1 -1 -36 -4 -77 -8 -41 -3 -84 -8 -95 -10 -11 -2 -40
-7 -65 -11 -66 -10 -224 -50 -314 -79 -440 -144 -835 -443 -1109 -839 -26 -37
-47 -70 -47 -72 0 -3 -15 -28 -33 -57 -124 -195 -233 -510 -273 -783 -3 -22
-8 -51 -11 -65 -3 -14 -7 -485 -8 -1047 l-2 -1023 508 0 507 0 1 963 c0 529 3
980 6 1002 40 272 146 486 335 676 187 188 422 303 685 335 17 2 463 4 993 5
l962 1 0 507 0 507 -980 0 c-540 0 -982 -1 -983 -2z"/>
</g>
</svg>
