<?xml version="1.0" encoding="UTF-8"?>
<svg id="Layer_1" xmlns="http://www.w3.org/2000/svg" version="1.1" viewBox="0 0 419 162">
  <!-- Generator: Adobe Illustrator 30.0.0, SVG Export Plug-In . SVG Version: 2.1.1 Build 123)  -->
  <defs>
    <style>
      .st0 {
        fill-rule: evenodd;
      }

      .st0, .st1 {
        fill: #fff;
      }

      .st2 {
        fill: #ff4f55;
      }
    </style>
  </defs>
  <g id="Logo">
    <path class="st1" d="M325.7,19.9c-10.1,0-19.4,1.7-27.8,5s-15.6,8-21.7,13.9c-6,5.9-10.8,12.9-14.2,20.8-3.4,7.9-5.1,16.5-5.1,25.8s1.7,17.8,5.1,25.8c3.4,7.9,8.1,14.9,14.2,20.8,6,5.9,13.3,10.6,21.7,13.9s17.7,5,27.8,5,19.2-1.7,27.7-5c8.5-3.4,15.8-8,21.8-13.9,6.1-5.9,10.9-12.9,14.3-20.8,3.4-7.9,5.1-16.5,5.1-25.8s-1.7-17.8-5.1-25.8c-3.4-7.9-8.2-14.9-14.3-20.8-6.1-5.9-13.4-10.5-21.8-13.9-8.5-3.3-17.7-5-27.7-5ZM360.8,85.4c0,4.9-.9,9.5-2.8,13.7-1.9,4.2-4.4,7.8-7.7,10.9-3.2,3.1-7,5.5-11.2,7.1-4.2,1.7-8.7,2.6-13.4,2.6s-9.2-.9-13.4-2.6c-4.2-1.7-7.9-4.1-11.1-7.1-3.2-3.1-5.7-6.7-7.6-10.9-1.9-4.2-2.8-8.7-2.8-13.7s.9-9.5,2.8-13.7,4.4-7.8,7.6-10.9,6.9-5.5,11.1-7.2,8.7-2.6,13.4-2.6,9.2.8,13.4,2.6c4.2,1.7,8,4.1,11.2,7.2s5.8,6.7,7.7,10.9c1.9,4.2,2.8,8.7,2.8,13.7Z"/>
    <path class="st0" d="M241,154.8h-92.2l-7-26,59.1-53c3.5-3.4,6.4-6.8,8.5-10.3s3.3-7.4,3.3-11.7-1.6-9.3-4.9-12.4c-3.2-3.2-7.6-4.8-13-4.8s-10.3,2-13.9,6c-3.5,3.9-7.3,11.6-8.1,18.1l-31.2-9c.9-6.7,3.2-12,6.2-17.3,3.2-5.7,7.2-10.6,12.1-14.6,4.9-4,10.5-7.1,16.8-9.2,6.3-2.1,13-3.2,20-3.2s13.1.9,19.3,2.6c6.2,1.8,11.8,4.5,16.7,8.1s8.8,8.2,11.7,13.8c2.9,5.5,4.4,12,4.4,19.5s-.7,9.8-2,13.9c-1.4,4.1-3.2,7.9-5.6,11.5-2.4,3.5-5.1,6.8-8.1,9.8-3.1,3.1-6.2,6.1-9.4,9l-33.3,29.6h58.7v.3l-7.9,29.3h-.2Z"/>
    <path class="st0" d="M80.6,102.9h19.8c-.6,3.6-1.6,6.7-3.1,9.2s-3.5,4.6-5.8,6.1c-2.4,1.6-5,2.7-8,3.4s-6,1.1-9.2,1.1c-5.4,0-10.1-.9-14.2-2.7s-7.5-4.4-10.2-7.6c-2.8-3.3-4.8-7.2-6.2-11.7-1.4-4.5-2.1-9.4-2.1-14.6s.8-11.1,2.4-15.8c1.6-4.7,3.8-8.7,6.6-12.1,2.8-3.3,6.2-5.9,10.1-7.7,3.9-1.8,8.3-2.7,13.2-2.7s11,1.5,15.5,4.4c2.9,1.9,5.5,4.6,7.8,8.1l32.6-8.7c-5.6-10.4-12.9-18.2-21.9-23.3-9.8-5.6-21.1-8.4-34-8.4s-19,1.6-27.1,4.8-15,7.6-20.8,13.3c-5.8,5.7-10.2,12.6-13.3,20.6-3.1,8.1-4.7,16.9-4.7,26.5s1.6,18.6,4.8,26.7c3.2,8,7.6,14.9,13.3,20.7,5.7,5.7,12.5,10.2,20.5,13.4,7.9,3.2,16.7,4.8,26.4,4.8s13.7-.9,20.1-2.6,12.2-4.3,17.5-7.6,9.9-7.5,13.9-12.5,7.1-10.7,9.4-17.1c1.6-4.6,2.7-9.6,3.3-14.9.6-5.4.8-11.3.8-17.9h-64l6.7,24.9h0Z"/>
    <path class="st2" d="M362.8,7.4l17.6,17.6,13,13c5.9,5.9,11.8,11.8,17.6,17.6V7.2h-48.3,0Z"/>
  </g>
</svg>