<svg height="24" viewBox="0 0 24 24" width="24" xmlns="http://www.w3.org/2000/svg"><g fill="currentColor"><path d="M12 6.2c-3.2 0-5.8 2.6-5.8 5.8s2.6 5.8 5.8 5.8 5.8-2.6 5.8-5.8-2.6-5.8-5.8-5.8m0 9.5c-2 0-3.7-1.7-3.7-3.7S10 8.2 12 8.2s3.7 1.7 3.7 3.7-1.7 3.8-3.7 3.8M18 7.3c.7 0 1.3-.6 1.3-1.3s-.6-1.3-1.3-1.3-1.3.6-1.3 1.3.6 1.3 1.3 1.3"/><path d="M21.4 2.6C20.2 1.4 18.5.7 16.6.7H7.3C3.4.7.7 3.3.7 7.3v9.3c0 1.9.6 3.6 1.9 4.8 1.2 1.2 2.9 1.8 4.7 1.8h9.2c1.9 0 3.6-.6 4.8-1.8s1.9-2.9 1.9-4.8V7.3c0-1.9-.6-3.5-1.8-4.7m-.1 14.1c0 1.4-.5 2.5-1.3 3.3s-2 1.2-3.3 1.2H7.4q-2.1 0-3.3-1.2c-1.2-1.2-1.2-1.9-1.2-3.4V7.3C2.8 6 3.2 4.8 4.1 4c.7-.8 1.9-1.2 3.3-1.2h9.3q2.1 0 3.3 1.2c1.2 1.2 1.2 2 1.2 3.3z"/></g></svg>