<svg enable-background="new 0 0 24 24" height="24" viewBox="0 0 24 24" width="24" xmlns="http://www.w3.org/2000/svg"><g fill="currentColor"><path d="m12 6.2c-3.2 0-5.8 2.6-5.8 5.8s2.6 5.8 5.8 5.8 5.8-2.6 5.8-5.8-2.6-5.8-5.8-5.8zm0 9.5c-2 0-3.7-1.7-3.7-3.7s1.7-3.8 3.7-3.8 3.7 1.7 3.7 3.7-1.7 3.8-3.7 3.8z"/><path d="m18 7.3c.7 0 1.3-.6 1.3-1.3s-.6-1.3-1.3-1.3-1.3.6-1.3 1.3.6 1.3 1.3 1.3z"/><path d="m21.4 2.6c-1.2-1.2-2.9-1.9-4.8-1.9h-9.3c-3.9 0-6.6 2.6-6.6 6.6v9.3c0 1.9.6 3.6 1.9 4.8 1.2 1.2 2.9 1.8 4.7 1.8h9.2c1.9 0 3.6-.6 4.8-1.8s1.9-2.9 1.9-4.8v-9.3c0-1.9-.6-3.5-1.8-4.7zm-.1 14.1c0 1.4-.5 2.5-1.3 3.3s-2 1.2-3.3 1.2h-9.3c-1.4 0-2.5-.4-3.3-1.2s-1.2-1.9-1.2-3.4v-9.3c-.1-1.3.3-2.5 1.2-3.3.7-.8 1.9-1.2 3.3-1.2h9.3c1.4 0 2.5.4 3.3 1.2s1.2 2 1.2 3.3z"/></g></svg>